<svg width="17" height="17" viewBox="0 0 17 17" fill="none" xmlns="http://www.w3.org/2000/svg">
<path d="M4.78837 15.5833H12.2117C14.1667 15.5833 14.9459 14.3863 15.038 12.9271L15.4063 7.07626C15.5055 5.54626 14.2871 4.25001 12.75 4.25001C12.318 4.25001 11.9213 4.00209 11.723 3.61959L11.213 2.59251C10.8871 1.94792 10.0371 1.41667 9.31462 1.41667H7.69254C6.96295 1.41667 6.11295 1.94792 5.78712 2.59251L5.27712 3.61959C5.07879 4.00209 4.68212 4.25001 4.25004 4.25001C2.71295 4.25001 1.49462 5.54626 1.59379 7.07626L1.96212 12.9271C2.04712 14.3863 2.83337 15.5833 4.78837 15.5833Z" stroke="#0C0C0C" stroke-width="1.3" stroke-linecap="round" stroke-linejoin="round"/>
<path d="M7.4375 5.66666H9.5625" stroke="#0C0C0C" stroke-width="1.3" stroke-linecap="round" stroke-linejoin="round"/>
<path d="M8.50008 12.75C9.768 12.75 10.8022 11.7158 10.8022 10.4479C10.8022 9.18001 9.768 8.14584 8.50008 8.14584C7.23216 8.14584 6.198 9.18001 6.198 10.4479C6.198 11.7158 7.23216 12.75 8.50008 12.75Z" stroke="#0C0C0C" stroke-width="1.3" stroke-linecap="round" stroke-linejoin="round"/>
</svg>
