<svg width="16" height="16" viewBox="0 0 16 16" fill="none" xmlns="http://www.w3.org/2000/svg">
<path d="M6.67969 11.68C6.98635 12.0733 7.46635 12.3333 7.99969 12.3333C8.91969 12.3333 9.66635 11.5867 9.66635 10.6667C9.66635 10.2867 9.53969 9.93334 9.32635 9.65334" stroke="#1A1A1A" stroke-width="1.3" stroke-linecap="round" stroke-linejoin="round"/>
<path d="M1.87967 13.8667C1.47301 13.36 1.33301 12.5533 1.33301 11.3333V10C1.33301 7.33334 1.99967 6.66667 4.66634 6.66667H11.333C11.573 6.66667 11.793 6.67334 11.9997 6.68667C14.113 6.80667 14.6663 7.57334 14.6663 10V11.3333C14.6663 14 13.9997 14.6667 11.333 14.6667H4.66634C4.42634 14.6667 4.20634 14.66 3.99967 14.6467" stroke="#1A1A1A" stroke-width="1.3" stroke-linecap="round" stroke-linejoin="round"/>
<path d="M4 6.66666V5.33333C4 3.12666 4.66667 1.33333 8 1.33333C10.7667 1.33333 11.6933 2.25333 11.9333 3.70666" stroke="#1A1A1A" stroke-width="1.3" stroke-linecap="round" stroke-linejoin="round"/>
<path d="M14.6663 1.33333L1.33301 14.6667" stroke="#1A1A1A" stroke-width="1.3" stroke-linecap="round" stroke-linejoin="round"/>
</svg>
