<svg width="35" height="35" viewBox="0 0 35 35" fill="none" xmlns="http://www.w3.org/2000/svg">
<path fill-rule="evenodd" clip-rule="evenodd" d="M27.4167 8.45833H26.0056L24.5117 5.845C23.9916 4.93704 23.0258 4.37631 21.9794 4.375H13.0206C11.9742 4.37631 11.0084 4.93704 10.4883 5.845L8.99442 8.45833H8.75V6.70833C8.75 6.38619 8.48881 6.125 8.16667 6.125H3.5C3.17785 6.125 2.91667 6.38619 2.91667 6.70833V8.45833C1.30667 8.46023 0.00189583 9.765 0 11.375V27.7083C0.00189583 29.3183 1.30667 30.6231 2.91667 30.625H32.0833C33.6933 30.6231 34.9981 29.3183 35 27.7083V11.375C34.9981 9.765 33.6933 8.46023 32.0833 8.45833H30.9167H28.5833H27.4167ZM7.58333 7.29167H4.08333V8.45833H7.58333V7.29167ZM32.0833 29.4583C33.0498 29.4583 33.8333 28.6748 33.8333 27.7083V11.375C33.8333 10.4085 33.0498 9.625 32.0833 9.625H25.6667C25.4578 9.62544 25.2647 9.51417 25.1603 9.33333L23.4961 6.42367C23.1843 5.88 22.6062 5.54378 21.9794 5.54167H13.0206C12.3923 5.5432 11.8127 5.88051 11.501 6.426L9.83967 9.33333C9.73525 9.51417 9.54217 9.62544 9.33333 9.625H2.91667C1.95016 9.625 1.16667 10.4085 1.16667 11.375V27.7083C1.16667 28.6748 1.95016 29.4583 2.91667 29.4583H32.0833Z" fill="white"/>
<path d="M25.3411 20.7451C25.3405 20.7449 25.3401 20.7447 25.3396 20.7445C25.0387 20.6295 24.7016 20.7802 24.5865 21.0811C23.0867 24.9915 18.7008 26.9456 14.7905 25.4458C12.1601 24.4369 10.3058 22.053 9.97518 19.2553L11.3991 20.6792C11.623 20.9109 11.9922 20.9173 12.2239 20.6935C12.4557 20.4696 12.4621 20.1004 12.2382 19.8686C12.2336 19.8637 12.2287 19.859 12.2239 19.8543L9.74885 17.3793C9.52105 17.1515 9.1518 17.1515 8.92401 17.3793L6.44601 19.8543C6.22216 20.0861 6.22858 20.4553 6.4603 20.6792C6.68635 20.8976 7.0448 20.8976 7.27085 20.6792L8.78751 19.1625C9.22377 23.9753 13.4789 27.5231 18.2917 27.0869C21.6168 26.7855 24.4806 24.6181 25.6738 21.4998C25.7904 21.1996 25.6414 20.8616 25.3411 20.7451Z" fill="white"/>
<path d="M27.7434 16.0565C27.7385 16.0612 27.7338 16.066 27.7291 16.0708L26.2125 17.5875C25.7772 12.7746 21.5227 9.22597 16.7098 9.66128C13.3707 9.9633 10.4977 12.1469 9.31272 15.2833C9.19883 15.5847 9.35086 15.9213 9.65222 16.0352C9.95359 16.1491 10.2902 15.9971 10.4041 15.6957C11.8873 11.779 16.2648 9.80617 20.1815 11.2893C22.8291 12.2919 24.6978 14.6858 25.0277 17.4976L23.6038 16.0708C23.38 15.8391 23.0107 15.8327 22.779 16.0565C22.5472 16.2803 22.5408 16.6496 22.7647 16.8813C22.7693 16.8862 22.7742 16.891 22.779 16.8956L25.2541 19.3707C25.4818 19.5984 25.8511 19.5984 26.0789 19.3707L28.554 16.8956C28.7857 16.6719 28.7921 16.3025 28.5683 16.0708C28.3445 15.8391 27.9752 15.8327 27.7434 16.0565Z" fill="white"/>
</svg>
