<svg width="29" height="29" viewBox="0 0 29 29" fill="none" xmlns="http://www.w3.org/2000/svg">
<path d="M14.3757 10.6286C16.8649 9.96165 19.4158 11.4344 20.0751 13.9192C20.7421 16.4083 19.2693 18.9593 16.7845 19.6186C14.2954 20.2856 11.7444 18.8128 11.0851 16.328C10.4137 13.8465 11.8909 11.2879 14.3757 10.6286Z" stroke="white" stroke-width="1.3" stroke-linecap="round" stroke-linejoin="round"/>
<path d="M15.5801 15.1236L16.0949 17.0448" stroke="white" stroke-width="1.3" stroke-linecap="round" stroke-linejoin="round"/>
<path d="M13.2911 6.58068C13.4723 6.53212 13.6638 6.64269 13.72 6.82836C13.7686 7.00961 13.658 7.20112 13.4724 7.25735C13.2867 7.31357 13.0996 7.19534 13.0434 7.00967C12.9872 6.824 13.1021 6.62483 13.2911 6.58068Z" stroke="white" stroke-width="1.3" stroke-miterlimit="10"/>
<path d="M13.2911 6.58068C13.4723 6.53212 13.6638 6.64269 13.72 6.82836C13.7686 7.00961 13.658 7.20112 13.4724 7.25735C13.2867 7.31357 13.0996 7.19534 13.0434 7.00967C12.9872 6.824 13.1021 6.62483 13.2911 6.58068Z" fill="white"/>
<path d="M17.6879 22.9898C17.8691 22.9413 18.0606 23.0518 18.1169 23.2375C18.1731 23.4232 18.0549 23.6103 17.8692 23.6665C17.6879 23.7151 17.4964 23.6045 17.4402 23.4188C17.384 23.2331 17.499 23.034 17.6879 22.9898Z" stroke="white" stroke-width="1.3" stroke-miterlimit="10"/>
<path d="M17.6879 22.9898C17.8691 22.9413 18.0606 23.0518 18.1169 23.2375C18.1731 23.4232 18.0549 23.6103 17.8692 23.6665C17.6879 23.7151 17.4964 23.6045 17.4402 23.4188C17.384 23.2331 17.499 23.034 17.6879 22.9898Z" fill="white"/>
<path d="M19.7353 7.43116C19.9166 7.38259 20.1081 7.49316 20.1643 7.67883C20.2129 7.86008 20.1023 8.05159 19.9167 8.10782C19.731 8.16405 19.5439 8.04582 19.4877 7.86014C19.4314 7.67447 19.5464 7.4753 19.7353 7.43116Z" stroke="white" stroke-width="1.3" stroke-miterlimit="10"/>
<path d="M19.7353 7.43116C19.9166 7.38259 20.1081 7.49316 20.1643 7.67883C20.2129 7.86008 20.1023 8.05159 19.9167 8.10782C19.731 8.16405 19.5439 8.04582 19.4877 7.86014C19.4314 7.67447 19.5464 7.4753 19.7353 7.43116Z" fill="white"/>
<path d="M11.2392 22.147C11.4204 22.0984 11.612 22.209 11.6682 22.3947C11.7244 22.5803 11.6062 22.7675 11.4205 22.8237C11.2392 22.8722 11.0477 22.7617 10.9915 22.576C10.9397 22.3827 11.0503 22.1911 11.2392 22.147Z" stroke="white" stroke-width="1.3" stroke-miterlimit="10"/>
<path d="M11.2392 22.147C11.4204 22.0984 11.612 22.209 11.6682 22.3947C11.7244 22.5803 11.6062 22.7675 11.4205 22.8237C11.2392 22.8722 11.0477 22.7617 10.9915 22.576C10.9397 22.3827 11.0503 22.1911 11.2392 22.147Z" fill="white"/>
<path d="M23.694 12.5868C23.8753 12.5383 24.0668 12.6488 24.123 12.8345C24.1716 13.0158 24.061 13.2073 23.8753 13.2635C23.6897 13.3197 23.5026 13.2015 23.4464 13.0158C23.3946 12.8225 23.5051 12.631 23.694 12.5868Z" stroke="white" stroke-width="1.3" stroke-miterlimit="10"/>
<path d="M23.694 12.5868C23.8753 12.5383 24.0668 12.6488 24.123 12.8345C24.1716 13.0158 24.061 13.2073 23.8753 13.2635C23.6897 13.3197 23.5026 13.2015 23.4464 13.0158C23.3946 12.8225 23.5051 12.631 23.694 12.5868Z" fill="white"/>
<path d="M7.28489 16.9837C7.46614 16.9351 7.65765 17.0457 7.71388 17.2314C7.7701 17.417 7.65187 17.6041 7.4662 17.6603C7.28495 17.7089 7.09344 17.5983 7.03721 17.4127C6.98099 17.227 7.09598 17.0278 7.28489 16.9837Z" stroke="white" stroke-width="1.3" stroke-miterlimit="10"/>
<path d="M7.28489 16.9837C7.46614 16.9351 7.65765 17.0457 7.71388 17.2314C7.7701 17.417 7.65187 17.6041 7.4662 17.6603C7.28495 17.7089 7.09344 17.5983 7.03721 17.4127C6.98099 17.227 7.09598 17.0278 7.28489 16.9837Z" fill="white"/>
<path d="M8.1277 10.5349C8.30895 10.4864 8.50046 10.5969 8.55669 10.7826C8.61291 10.9683 8.49468 11.1554 8.30901 11.2116C8.12334 11.2678 7.93625 11.1496 7.88003 10.9639C7.8238 10.7783 7.94645 10.5835 8.1277 10.5349Z" stroke="white" stroke-width="1.3" stroke-miterlimit="10"/>
<path d="M8.1277 10.5349C8.30895 10.4864 8.50046 10.5969 8.55669 10.7826C8.61291 10.9683 8.49468 11.1554 8.30901 11.2116C8.12334 11.2678 7.93625 11.1496 7.88003 10.9639C7.8238 10.7783 7.94645 10.5835 8.1277 10.5349Z" fill="white"/>
</svg>
