<svg width="23" height="23" viewBox="0 0 23 23" fill="none" xmlns="http://www.w3.org/2000/svg">
<path d="M7.33137 20.0388C7.30262 20.0388 7.26428 20.0579 7.23553 20.0579C5.37637 19.1379 3.8622 17.6142 2.93262 15.755C2.93262 15.7263 2.95178 15.6879 2.95178 15.6592C4.12095 16.0042 5.32845 16.2629 6.52637 16.4642C6.7372 17.6717 6.98637 18.8696 7.33137 20.0388Z" fill="#70B5EE"/>
<path d="M20.0676 15.7646C19.1188 17.6717 17.5376 19.2146 15.6113 20.1442C15.9755 18.9271 16.2822 17.7004 16.4834 16.4642C17.6909 16.2629 18.8792 16.0042 20.0484 15.6592C20.0388 15.6975 20.0676 15.7358 20.0676 15.7646Z" fill="#70B5EE"/>
<path d="M20.1442 7.38875C18.9367 7.02458 17.7197 6.7275 16.4834 6.51667C16.2822 5.28042 15.9851 4.05375 15.6113 2.85583C17.5951 3.80458 19.1955 5.405 20.1442 7.38875Z" fill="#70B5EE"/>
<path d="M7.33113 2.96125C6.98613 4.13041 6.73696 5.31875 6.53571 6.52625C5.29946 6.71791 4.0728 7.02458 2.85571 7.38875C3.7853 5.4625 5.32821 3.88125 7.2353 2.9325C7.26405 2.9325 7.30238 2.96125 7.33113 2.96125Z" fill="#70B5EE"/>
<path d="M14.8447 6.31541C12.6214 6.06624 10.3789 6.06624 8.15552 6.31541C8.3951 5.00249 8.70177 3.68957 9.13302 2.42457C9.15218 2.34791 9.1426 2.29041 9.15218 2.21374C9.90927 2.03166 10.6855 1.91666 11.5001 1.91666C12.3051 1.91666 13.0909 2.03166 13.8384 2.21374C13.848 2.29041 13.848 2.34791 13.8672 2.42457C14.2984 3.69916 14.6051 5.00249 14.8447 6.31541Z" fill="#70B5EE"/>
<path d="M6.3155 14.8446C4.993 14.605 3.68966 14.2983 2.42466 13.8671C2.348 13.8479 2.2905 13.8575 2.21383 13.8479C2.03175 13.0908 1.91675 12.3146 1.91675 11.5C1.91675 10.695 2.03175 9.90918 2.21383 9.16168C2.2905 9.15209 2.348 9.15209 2.42466 9.13293C3.69925 8.71126 4.993 8.39501 6.3155 8.15543C6.07591 10.3788 6.07591 12.6213 6.3155 14.8446Z" fill="#70B5EE"/>
<path d="M21.0833 11.5C21.0833 12.3146 20.9683 13.0908 20.7862 13.8479C20.7096 13.8575 20.6521 13.8479 20.5754 13.8671C19.3008 14.2888 17.9975 14.605 16.6846 14.8446C16.9337 12.6213 16.9337 10.3788 16.6846 8.15543C17.9975 8.39501 19.3104 8.70168 20.5754 9.13293C20.6521 9.15209 20.7096 9.16168 20.7862 9.16168C20.9683 9.91876 21.0833 10.695 21.0833 11.5Z" fill="#70B5EE"/>
<path d="M14.8447 16.6846C14.6051 18.0071 14.2984 19.3104 13.8672 20.5754C13.848 20.6521 13.848 20.7096 13.8384 20.7862C13.0909 20.9683 12.3051 21.0833 11.5001 21.0833C10.6855 21.0833 9.90927 20.9683 9.15218 20.7862C9.1426 20.7096 9.15218 20.6521 9.13302 20.5754C8.71135 19.3008 8.3951 18.0071 8.15552 16.6846C9.26718 16.8092 10.3789 16.8954 11.5001 16.8954C12.6214 16.8954 13.7426 16.8092 14.8447 16.6846Z" fill="#70B5EE"/>
<path d="M15.1066 15.1065C12.7097 15.4089 10.2904 15.4089 7.89356 15.1065C7.59115 12.7096 7.59115 10.2903 7.89356 7.89346C10.2904 7.59105 12.7097 7.59105 15.1066 7.89346C15.409 10.2903 15.409 12.7096 15.1066 15.1065Z" fill="#70B5EE"/>
</svg>
