<svg width="16" height="16" viewBox="0 0 16 16" fill="none" xmlns="http://www.w3.org/2000/svg">
<path d="M3.3335 10V5.33333" stroke="#1A1A1A" stroke-width="1.3" stroke-linecap="round" stroke-linejoin="round"/>
<path d="M3.50016 14.6667C4.69678 14.6667 5.66683 13.6966 5.66683 12.5C5.66683 11.3034 4.69678 10.3333 3.50016 10.3333C2.30355 10.3333 1.3335 11.3034 1.3335 12.5C1.3335 13.6966 2.30355 14.6667 3.50016 14.6667Z" stroke="#1A1A1A" stroke-width="1.3" stroke-linecap="round" stroke-linejoin="round"/>
<path d="M3.3335 5.33333C4.43807 5.33333 5.3335 4.4379 5.3335 3.33333C5.3335 2.22876 4.43807 1.33333 3.3335 1.33333C2.22893 1.33333 1.3335 2.22876 1.3335 3.33333C1.3335 4.4379 2.22893 5.33333 3.3335 5.33333Z" stroke="#1A1A1A" stroke-width="1.3" stroke-linecap="round" stroke-linejoin="round"/>
<path d="M12.6665 5.33333C13.7711 5.33333 14.6665 4.4379 14.6665 3.33333C14.6665 2.22876 13.7711 1.33333 12.6665 1.33333C11.5619 1.33333 10.6665 2.22876 10.6665 3.33333C10.6665 4.4379 11.5619 5.33333 12.6665 5.33333Z" stroke="#1A1A1A" stroke-width="1.3" stroke-linecap="round" stroke-linejoin="round"/>
<path d="M3.41992 10C3.71992 8.83333 4.78659 7.96666 6.04659 7.97332L8.33325 7.98C10.0799 7.98666 11.5666 6.86666 12.1133 5.30666" stroke="#1A1A1A" stroke-width="1.3" stroke-linecap="round" stroke-linejoin="round"/>
</svg>
