<svg width="16" height="16" viewBox="0 0 16 16" fill="none" xmlns="http://www.w3.org/2000/svg">
<path d="M11.333 14.6667H4.66634C1.99967 14.6667 1.33301 14 1.33301 11.3333V10C1.33301 7.33333 1.99967 6.66666 4.66634 6.66666H11.333C13.9997 6.66666 14.6663 7.33333 14.6663 10V11.3333C14.6663 14 13.9997 14.6667 11.333 14.6667Z" stroke="#1A1A1A" stroke-width="1.3" stroke-linecap="round" stroke-linejoin="round"/>
<path d="M4 6.66667V5.33334C4 3.12667 4.66667 1.33334 8 1.33334C11 1.33334 12 2.66667 12 4.66667" stroke="#1A1A1A" stroke-width="1.3" stroke-linecap="round" stroke-linejoin="round"/>
<path d="M7.99967 12.3333C8.92015 12.3333 9.66634 11.5871 9.66634 10.6667C9.66634 9.74619 8.92015 9 7.99967 9C7.0792 9 6.33301 9.74619 6.33301 10.6667C6.33301 11.5871 7.0792 12.3333 7.99967 12.3333Z" stroke="#1A1A1A" stroke-width="1.3" stroke-linecap="round" stroke-linejoin="round"/>
</svg>
