<svg width="16" height="16" viewBox="0 0 16 16" fill="none" xmlns="http://www.w3.org/2000/svg">
<path d="M6.99343 1.48667L3.66677 2.73333C2.9001 3.02 2.27344 3.92665 2.27344 4.74665V9.69998C2.27344 10.4866 2.79344 11.52 3.42678 11.9933L6.29344 14.1333C7.23344 14.84 8.78009 14.84 9.72009 14.1333L12.5868 11.9933C13.2201 11.52 13.7401 10.4866 13.7401 9.69998V4.74665C13.7401 3.92665 13.1134 3.02 12.3468 2.73333L9.0201 1.48667C8.45343 1.28 7.54676 1.28 6.99343 1.48667Z" stroke="#1A1A1A" stroke-width="1.3" stroke-linecap="round" stroke-linejoin="round"/>
<path d="M8.00045 7.28001C7.97378 7.28001 7.94044 7.28001 7.91378 7.28001C7.28711 7.26001 6.78711 6.74001 6.78711 6.10667C6.78711 5.46001 7.31378 4.93333 7.96045 4.93333C8.60712 4.93333 9.13379 5.46001 9.13379 6.10667C9.12712 6.74667 8.62711 7.26001 8.00045 7.28001Z" stroke="#1A1A1A" stroke-width="1.2" stroke-linecap="round" stroke-linejoin="round"/>
<path d="M6.67336 9.14668C6.03336 9.57334 6.03336 10.2733 6.67336 10.7C7.40003 11.1867 8.59336 11.1867 9.32003 10.7C9.96003 10.2733 9.96003 9.57334 9.32003 9.14668C8.60003 8.66001 7.40669 8.66001 6.67336 9.14668Z" stroke="#1A1A1A" stroke-width="1.2" stroke-linecap="round" stroke-linejoin="round"/>
</svg>
