<svg width="24" height="22" viewBox="0 0 24 22" fill="none" xmlns="http://www.w3.org/2000/svg">
<path d="M10.564 14.3687C11.2502 14.3687 11.8949 14.2386 12.498 13.9785C13.1012 13.7184 13.6325 13.3587 14.0918 12.8994C14.5511 12.4346 14.9108 11.9006 15.1709 11.2974C15.4365 10.6942 15.5693 10.0495 15.5693 9.36328C15.5693 8.67708 15.4365 8.03239 15.1709 7.4292C14.9108 6.82601 14.5511 6.29476 14.0918 5.83545C13.6325 5.37614 13.1012 5.01644 12.498 4.75635C11.8949 4.49072 11.2502 4.35791 10.564 4.35791C9.87777 4.35791 9.23307 4.49072 8.62988 4.75635C8.02669 5.01644 7.49268 5.37614 7.02783 5.83545C6.56852 6.29476 6.20882 6.82601 5.94873 7.4292C5.68864 8.03239 5.55859 8.67708 5.55859 9.36328C5.55859 10.0495 5.68864 10.6942 5.94873 11.2974C6.20882 11.9006 6.56852 12.4346 7.02783 12.8994C7.49268 13.3587 8.02669 13.7184 8.62988 13.9785C9.23307 14.2386 9.87777 14.3687 10.564 14.3687ZM10.564 15.7466C9.68408 15.7466 8.85954 15.5806 8.09033 15.2485C7.32113 14.9165 6.64323 14.4572 6.05664 13.8706C5.47005 13.284 5.01074 12.6061 4.67871 11.8369C4.34668 11.0677 4.18066 10.2432 4.18066 9.36328C4.18066 8.4834 4.34668 7.65885 4.67871 6.88965C5.01074 6.11491 5.47005 5.43701 6.05664 4.85596C6.64323 4.26937 7.32113 3.81006 8.09033 3.47803C8.86507 3.146 9.68962 2.97998 10.564 2.97998C11.4438 2.97998 12.2684 3.146 13.0376 3.47803C13.8068 3.81006 14.4847 4.26937 15.0713 4.85596C15.6579 5.44255 16.1172 6.12044 16.4492 6.88965C16.7812 7.65885 16.9473 8.4834 16.9473 9.36328C16.9473 10.2432 16.7812 11.0677 16.4492 11.8369C16.1172 12.6061 15.6579 13.284 15.0713 13.8706C14.4847 14.4572 13.8068 14.9165 13.0376 15.2485C12.2684 15.5806 11.4438 15.7466 10.564 15.7466ZM18.8896 18.7598C18.7624 18.7598 18.6406 18.7376 18.5244 18.6934C18.4082 18.6491 18.3031 18.5799 18.209 18.4858L13.8013 14.0781L15.1626 12.7583L19.5454 17.1494C19.6395 17.238 19.7059 17.3403 19.7446 17.4565C19.7889 17.5728 19.811 17.6917 19.811 17.8135C19.811 17.9906 19.7695 18.1483 19.6865 18.2866C19.609 18.4305 19.5011 18.5439 19.3628 18.627C19.2244 18.7155 19.0667 18.7598 18.8896 18.7598Z" fill="#EBEBF5" fill-opacity="0.6"/>
</svg>
