<svg width="16" height="16" viewBox="0 0 16 16" fill="none" xmlns="http://www.w3.org/2000/svg">
<path d="M8.61366 1.50667L12.9537 3.84667C13.4603 4.12 13.4603 4.9 12.9537 5.17334L8.61366 7.51334C8.22699 7.72 7.77366 7.72 7.38699 7.51334L3.04699 5.17334C2.54033 4.9 2.54033 4.12 3.04699 3.84667L7.38699 1.50667C7.77366 1.3 8.22699 1.3 8.61366 1.50667Z" stroke="#1A1A1A" stroke-width="1.3" stroke-linecap="round" stroke-linejoin="round"/>
<path d="M2.40634 6.75333L6.43967 8.77333C6.93967 9.02666 7.25967 9.54 7.25967 10.1V13.9133C7.25967 14.4667 6.67967 14.82 6.18634 14.5733L2.15301 12.5533C1.65301 12.3 1.33301 11.7867 1.33301 11.2267V7.41333C1.33301 6.86 1.91301 6.50666 2.40634 6.75333Z" stroke="#1A1A1A" stroke-width="1.3" stroke-linecap="round" stroke-linejoin="round"/>
<path d="M13.5936 6.75333L9.56023 8.77333C9.06023 9.02666 8.74023 9.54 8.74023 10.1V13.9133C8.74023 14.4667 9.32023 14.82 9.81357 14.5733L13.8469 12.5533C14.3469 12.3 14.6669 11.7867 14.6669 11.2267V7.41333C14.6669 6.86 14.0869 6.50666 13.5936 6.75333Z" stroke="#1A1A1A" stroke-width="1.3" stroke-linecap="round" stroke-linejoin="round"/>
</svg>
