<svg width="16" height="16" viewBox="0 0 16 16" fill="none" xmlns="http://www.w3.org/2000/svg">
<path d="M9.99967 5.58V4.94C9.99967 2.95334 8.61967 2.19334 6.93967 3.24667L4.99301 4.46667C4.77967 4.59334 4.53301 4.66667 4.28634 4.66667H3.33301C1.99967 4.66667 1.33301 5.33334 1.33301 6.66667V9.33333C1.33301 10.6667 1.99967 11.3333 3.33301 11.3333H4.66634" stroke="#1A1A1A" stroke-width="1.3" stroke-linecap="round" stroke-linejoin="round"/>
<path d="M6.94043 12.7533C8.62043 13.8067 10.0004 13.04 10.0004 11.06V8.63333" stroke="#1A1A1A" stroke-width="1.3" stroke-linecap="round" stroke-linejoin="round"/>
<path d="M12.54 6.28C13.14 7.71333 12.96 9.38667 12 10.6667" stroke="#1A1A1A" stroke-width="1.3" stroke-linecap="round" stroke-linejoin="round"/>
<path d="M14.0997 5.20001C15.0797 7.52668 14.7864 10.2467 13.2197 12.3333" stroke="#1A1A1A" stroke-width="1.3" stroke-linecap="round" stroke-linejoin="round"/>
<path d="M14.6663 1.33334L1.33301 14.6667" stroke="#1A1A1A" stroke-width="1.3" stroke-linecap="round" stroke-linejoin="round"/>
</svg>
