<svg width="16" height="16" viewBox="0 0 16 16" fill="none" xmlns="http://www.w3.org/2000/svg">
<path d="M13.3332 5.5V12C13.3332 14 12.1398 14.6667 10.6665 14.6667H5.33317C3.85984 14.6667 2.6665 14 2.6665 12V5.5C2.6665 3.33333 3.85984 2.83333 5.33317 2.83333C5.33317 3.24667 5.49982 3.62 5.77315 3.89333C6.04649 4.16666 6.41984 4.33333 6.83317 4.33333H9.1665C9.99317 4.33333 10.6665 3.66 10.6665 2.83333C12.1398 2.83333 13.3332 3.33333 13.3332 5.5Z" stroke="#1A1A1A" stroke-width="1.5" stroke-linecap="round" stroke-linejoin="round"/>
<path d="M10.6668 2.83333C10.6668 3.66 9.9935 4.33333 9.16683 4.33333H6.8335C6.42016 4.33333 6.04681 4.16666 5.77348 3.89333C5.50014 3.62 5.3335 3.24667 5.3335 2.83333C5.3335 2.00667 6.00683 1.33333 6.8335 1.33333H9.16683C9.58016 1.33333 9.95351 1.5 10.2268 1.77333C10.5002 2.04667 10.6668 2.42 10.6668 2.83333Z" stroke="#1A1A1A" stroke-width="1.5" stroke-linecap="round" stroke-linejoin="round"/>
<path d="M5.3335 8.66667H8.00016" stroke="#1A1A1A" stroke-width="1.5" stroke-linecap="round" stroke-linejoin="round"/>
<path d="M5.3335 11.3333H10.6668" stroke="#1A1A1A" stroke-width="1.5" stroke-linecap="round" stroke-linejoin="round"/>
</svg>
