<svg width="11" height="11" viewBox="0 0 11 11" fill="none" xmlns="http://www.w3.org/2000/svg">
<path d="M7.14104 5.49996C7.14104 6.40746 6.40771 7.1408 5.50021 7.1408C4.59271 7.1408 3.85938 6.40746 3.85938 5.49996C3.85938 4.59246 4.59271 3.85913 5.50021 3.85913C6.40771 3.85913 7.14104 4.59246 7.14104 5.49996Z" stroke="white" stroke-linecap="round" stroke-linejoin="round"/>
<path d="M5.49993 9.29037C7.11785 9.29037 8.62576 8.33704 9.67535 6.68704C10.0878 6.04079 10.0878 4.95454 9.67535 4.30829C8.62576 2.65829 7.11785 1.70496 5.49993 1.70496C3.88201 1.70496 2.3741 2.65829 1.32451 4.30829C0.912012 4.95454 0.912012 6.04079 1.32451 6.68704C2.3741 8.33704 3.88201 9.29037 5.49993 9.29037Z" stroke="white" stroke-linecap="round" stroke-linejoin="round"/>
</svg>
