<svg width="23" height="23" viewBox="0 0 23 23" fill="none" xmlns="http://www.w3.org/2000/svg">
<g opacity="0.6">
<path d="M11.6535 10.4171C11.5576 10.4075 11.4426 10.4075 11.3372 10.4171C9.05637 10.3404 7.24512 8.47166 7.24512 6.17166C7.24512 3.82374 9.14262 1.91666 11.5001 1.91666C13.848 1.91666 15.7551 3.82374 15.7551 6.17166C15.7455 8.47166 13.9343 10.3404 11.6535 10.4171Z" stroke="white" stroke-width="1.5" stroke-linecap="round" stroke-linejoin="round"/>
<path d="M6.86169 13.9533C4.54252 15.5058 4.54252 18.0358 6.86169 19.5788C9.49711 21.3421 13.8192 21.3421 16.4546 19.5788C18.7738 18.0263 18.7738 15.4963 16.4546 13.9533C13.8288 12.1996 9.50669 12.1996 6.86169 13.9533Z" stroke="white" stroke-width="1.5" stroke-linecap="round" stroke-linejoin="round"/>
</g>
</svg>
