<svg width="16" height="16" viewBox="0 0 16 16" fill="none" xmlns="http://www.w3.org/2000/svg">
<path d="M8 4.29333V6.51334" stroke="#1A1A1A" stroke-width="1.3" stroke-miterlimit="10" stroke-linecap="round"/>
<path d="M8.01327 1.33333C5.55993 1.33333 3.57327 3.31999 3.57327 5.77333V7.17333C3.57327 7.62666 3.3866 8.30666 3.15327 8.69333L2.3066 10.1067C1.7866 10.98 2.1466 11.9533 3.1066 12.2733C6.29326 13.3333 9.73993 13.3333 12.9266 12.2733C13.8266 11.9733 14.2133 10.92 13.7266 10.1067L12.8799 8.69333C12.6466 8.30666 12.4599 7.62 12.4599 7.17333V5.77333C12.4533 3.33333 10.4533 1.33333 8.01327 1.33333Z" stroke="#1A1A1A" stroke-width="1.3" stroke-miterlimit="10" stroke-linecap="round"/>
<path d="M10.2198 12.5467C10.2198 13.7667 9.21979 14.7667 7.99979 14.7667C7.39312 14.7667 6.83312 14.5133 6.43312 14.1133C6.03312 13.7133 5.77979 13.1533 5.77979 12.5467" stroke="#1A1A1A" stroke-width="1.3" stroke-miterlimit="10"/>
</svg>
