<svg width="16" height="16" viewBox="0 0 16 16" fill="none" xmlns="http://www.w3.org/2000/svg">
<path d="M8 1.33333V5.99999L9.33333 4.66666" stroke="#1A1A1A" stroke-width="1.3" stroke-linecap="round" stroke-linejoin="round"/>
<path d="M8.00033 6.00001L6.66699 4.66667" stroke="#1A1A1A" stroke-width="1.3" stroke-linecap="round" stroke-linejoin="round"/>
<path d="M1.32031 8.66667H4.26031C4.51365 8.66667 4.74031 8.80667 4.85365 9.03334L5.63365 10.5933C5.86031 11.0467 6.32031 11.3333 6.82698 11.3333H9.18031C9.68698 11.3333 10.147 11.0467 10.3736 10.5933L11.1536 9.03334C11.267 8.80667 11.5003 8.66667 11.747 8.66667H14.6536" stroke="#1A1A1A" stroke-width="1.3" stroke-linecap="round" stroke-linejoin="round"/>
<path d="M4.66634 2.75333C2.30634 3.09999 1.33301 4.48666 1.33301 7.33333V9.99999C1.33301 13.3333 2.66634 14.6667 5.99967 14.6667H9.99967C13.333 14.6667 14.6663 13.3333 14.6663 9.99999V7.33333C14.6663 4.48666 13.693 3.09999 11.333 2.75333" stroke="#1A1A1A" stroke-width="1.3" stroke-linecap="round" stroke-linejoin="round"/>
</svg>
