<svg width="14" height="14" viewBox="0 0 14 14" fill="none" xmlns="http://www.w3.org/2000/svg">
<path d="M8.47628 5.52417L5.52461 8.47583C5.14544 8.09667 4.91211 7.5775 4.91211 7C4.91211 5.845 5.84544 4.91167 7.00044 4.91167C7.57794 4.91167 8.09711 5.145 8.47628 5.52417Z" stroke="#1A1A1A" stroke-linecap="round" stroke-linejoin="round"/>
<path d="M10.3949 3.36583C9.37408 2.59583 8.20741 2.17583 6.99991 2.17583C4.94074 2.17583 3.02158 3.38917 1.68574 5.48917C1.16074 6.31167 1.16074 7.69417 1.68574 8.51667C2.14658 9.24 2.68324 9.86417 3.26658 10.3658" stroke="#1A1A1A" stroke-linecap="round" stroke-linejoin="round"/>
<path d="M4.91211 11.3925C5.57711 11.6725 6.28294 11.8242 7.00044 11.8242C9.05961 11.8242 10.9788 10.6108 12.3146 8.51083C12.8396 7.68833 12.8396 6.30583 12.3146 5.48333C12.1221 5.18 11.9121 4.89416 11.6963 4.62583" stroke="#1A1A1A" stroke-linecap="round" stroke-linejoin="round"/>
<path d="M9.04734 7.40833C8.89568 8.23083 8.22484 8.90167 7.40234 9.05333" stroke="#1A1A1A" stroke-linecap="round" stroke-linejoin="round"/>
<path d="M5.52449 8.47583L1.16699 12.8333" stroke="#1A1A1A" stroke-linecap="round" stroke-linejoin="round"/>
<path d="M12.8331 1.16666L8.47559 5.52416" stroke="#1A1A1A" stroke-linecap="round" stroke-linejoin="round"/>
</svg>
