<svg width="16" height="16" viewBox="0 0 16 16" fill="none" xmlns="http://www.w3.org/2000/svg">
<path d="M14.6663 6.66667V8.66667C14.6663 11.3333 13.333 12.6667 10.6663 12.6667H10.333C10.1263 12.6667 9.92634 12.7667 9.79967 12.9333L8.79967 14.2667C8.35967 14.8533 7.63967 14.8533 7.19967 14.2667L6.19967 12.9333C6.09301 12.7867 5.84634 12.6667 5.66634 12.6667H5.33301C2.66634 12.6667 1.33301 12 1.33301 8.66667V5.33333C1.33301 2.66667 2.66634 1.33333 5.33301 1.33333H9.33301" stroke="#1A1A1A" stroke-width="1.3" stroke-miterlimit="10" stroke-linecap="round" stroke-linejoin="round"/>
<path d="M12.9997 4.66667C13.9201 4.66667 14.6663 3.92047 14.6663 3C14.6663 2.07953 13.9201 1.33333 12.9997 1.33333C12.0792 1.33333 11.333 2.07953 11.333 3C11.333 3.92047 12.0792 4.66667 12.9997 4.66667Z" stroke="#1A1A1A" stroke-width="1.3" stroke-linecap="round" stroke-linejoin="round"/>
<path d="M10.6646 7.33333H10.6706" stroke="#1A1A1A" stroke-width="1.3" stroke-linecap="round" stroke-linejoin="round"/>
<path d="M7.99666 7.33333H8.00265" stroke="#1A1A1A" stroke-width="1.3" stroke-linecap="round" stroke-linejoin="round"/>
<path d="M5.32967 7.33333H5.33566" stroke="#1A1A1A" stroke-width="1.3" stroke-linecap="round" stroke-linejoin="round"/>
</svg>
