<svg width="17" height="17" viewBox="0 0 17 17" fill="none" xmlns="http://www.w3.org/2000/svg">
<path d="M6.37508 15.5833H10.6251C14.1667 15.5833 15.5834 14.1667 15.5834 10.625V6.375C15.5834 2.83334 14.1667 1.41667 10.6251 1.41667H6.37508C2.83341 1.41667 1.41675 2.83334 1.41675 6.375V10.625C1.41675 14.1667 2.83341 15.5833 6.37508 15.5833Z" stroke="#0C0C0C" stroke-linecap="round" stroke-linejoin="round"/>
<path d="M6.37492 7.08333C7.15732 7.08333 7.79159 6.44907 7.79159 5.66667C7.79159 4.88426 7.15732 4.25 6.37492 4.25C5.59252 4.25 4.95825 4.88426 4.95825 5.66667C4.95825 6.44907 5.59252 7.08333 6.37492 7.08333Z" stroke="#0C0C0C" stroke-linecap="round" stroke-linejoin="round"/>
<path d="M1.89136 13.4229L5.38344 11.0783C5.94302 10.7029 6.75052 10.7454 7.25344 11.1775L7.48719 11.3829C8.03969 11.8575 8.93219 11.8575 9.48469 11.3829L12.4314 8.85417C12.9839 8.37958 13.8764 8.37958 14.4289 8.85417L15.5834 9.84583" stroke="#0C0C0C" stroke-linecap="round" stroke-linejoin="round"/>
</svg>
