<svg width="16" height="16" viewBox="0 0 16 16" fill="none" xmlns="http://www.w3.org/2000/svg">
<path d="M13.1938 9.95333C11.8204 11.32 9.85376 11.74 8.12709 11.2L4.98709 14.3333C4.76042 14.5667 4.31376 14.7067 3.99376 14.66L2.54042 14.46C2.06042 14.3933 1.61376 13.94 1.54042 13.46L1.34042 12.0067C1.29376 11.6867 1.44709 11.24 1.66709 11.0133L4.80042 7.88C4.26709 6.14667 4.68042 4.18 6.05376 2.81333C8.02042 0.846666 11.2138 0.846666 13.1871 2.81333C15.1604 4.78 15.1604 7.98667 13.1938 9.95333Z" stroke="#1A1A1A" stroke-width="1.3" stroke-miterlimit="10" stroke-linecap="round" stroke-linejoin="round"/>
<path d="M4.59375 11.66L6.12708 13.1933" stroke="#1A1A1A" stroke-width="1.3" stroke-miterlimit="10" stroke-linecap="round" stroke-linejoin="round"/>
<path d="M9.66699 7.33333C10.2193 7.33333 10.667 6.88561 10.667 6.33333C10.667 5.78104 10.2193 5.33333 9.66699 5.33333C9.11471 5.33333 8.66699 5.78104 8.66699 6.33333C8.66699 6.88561 9.11471 7.33333 9.66699 7.33333Z" stroke="#1A1A1A" stroke-width="1.3" stroke-linecap="round" stroke-linejoin="round"/>
</svg>
