<svg width="16" height="16" viewBox="0 0 16 16" fill="none" xmlns="http://www.w3.org/2000/svg">
<path d="M8.10671 7.24666C8.04004 7.24 7.96004 7.24 7.88671 7.24666C6.30004 7.19333 5.04004 5.89333 5.04004 4.29333C5.04004 2.65999 6.36004 1.33333 8.00004 1.33333C9.63337 1.33333 10.96 2.65999 10.96 4.29333C10.9534 5.89333 9.69337 7.19333 8.10671 7.24666Z" stroke="#1A1A1A" stroke-width="1.3" stroke-linecap="round" stroke-linejoin="round"/>
<path d="M4.77348 9.70667C3.16014 10.7867 3.16014 12.5467 4.77348 13.62C6.60681 14.8467 9.61348 14.8467 11.4468 13.62C13.0601 12.54 13.0601 10.78 11.4468 9.70667C9.62014 8.48667 6.61348 8.48667 4.77348 9.70667Z" stroke="#1A1A1A" stroke-width="1.3" stroke-linecap="round" stroke-linejoin="round"/>
</svg>
