<svg width="16" height="16" viewBox="0 0 16 16" fill="none" xmlns="http://www.w3.org/2000/svg">
<path d="M14.6668 6.66665V8.66665C14.6668 11.3333 13.3335 12.6666 10.6668 12.6666H10.3335C10.1268 12.6666 9.92683 12.7666 9.80016 12.9333L8.80016 14.2666C8.36016 14.8533 7.64016 14.8533 7.20016 14.2666L6.20016 12.9333C6.0935 12.7866 5.84683 12.6666 5.66683 12.6666H5.3335C2.66683 12.6666 1.3335 12 1.3335 8.66665V5.33331C1.3335 2.66665 2.66683 1.33331 5.3335 1.33331H9.3335" stroke="#1A1A1A" stroke-width="1.5" stroke-miterlimit="10" stroke-linecap="round" stroke-linejoin="round"/>
<path d="M13.0002 4.66665C13.9206 4.66665 14.6668 3.92045 14.6668 2.99998C14.6668 2.07951 13.9206 1.33331 13.0002 1.33331C12.0797 1.33331 11.3335 2.07951 11.3335 2.99998C11.3335 3.92045 12.0797 4.66665 13.0002 4.66665Z" stroke="#1A1A1A" stroke-width="1.5" stroke-linecap="round" stroke-linejoin="round"/>
<path d="M10.6641 7.33333H10.6701" stroke="#1A1A1A" stroke-width="2" stroke-linecap="round" stroke-linejoin="round"/>
<path d="M7.99715 7.33333H8.00314" stroke="#1A1A1A" stroke-width="2" stroke-linecap="round" stroke-linejoin="round"/>
<path d="M5.32967 7.33333H5.33566" stroke="#1A1A1A" stroke-width="2" stroke-linecap="round" stroke-linejoin="round"/>
</svg>
