<svg width="23" height="23" viewBox="0 0 23 23" fill="none" xmlns="http://www.w3.org/2000/svg">
<g opacity="0.6">
<path d="M11.5001 21.0833C16.7928 21.0833 21.0834 16.7927 21.0834 11.5C21.0834 6.20726 16.7928 1.91666 11.5001 1.91666C6.20735 1.91666 1.91675 6.20726 1.91675 11.5C1.91675 16.7927 6.20735 21.0833 11.5001 21.0833Z" stroke="white" stroke-width="1.5" stroke-linecap="round" stroke-linejoin="round"/>
<path d="M7.66662 2.875H8.62495C6.7562 8.47167 6.7562 14.5283 8.62495 20.125H7.66662" stroke="white" stroke-width="1.5" stroke-linecap="round" stroke-linejoin="round"/>
<path d="M14.375 2.875C16.2438 8.47167 16.2438 14.5283 14.375 20.125" stroke="white" stroke-width="1.5" stroke-linecap="round" stroke-linejoin="round"/>
<path d="M2.875 15.3333V14.375C8.47167 16.2438 14.5283 16.2438 20.125 14.375V15.3333" stroke="white" stroke-width="1.5" stroke-linecap="round" stroke-linejoin="round"/>
<path d="M2.875 8.62501C8.47167 6.75626 14.5283 6.75626 20.125 8.62501" stroke="white" stroke-width="1.5" stroke-linecap="round" stroke-linejoin="round"/>
</g>
</svg>
