<svg width="23" height="23" viewBox="0 0 23 23" fill="none" xmlns="http://www.w3.org/2000/svg">
<g opacity="0.7">
<path d="M20.7575 10.005L19.8183 14.0108C19.0133 17.4704 17.4225 18.8696 14.4325 18.5821C13.9533 18.5437 13.4358 18.4575 12.88 18.3233L11.27 17.94C7.27376 16.9912 6.03751 15.0171 6.97668 11.0112L7.91584 6.99582C8.10751 6.18124 8.33751 5.47207 8.62501 4.88749C9.74626 2.56832 11.6533 1.9454 14.8542 2.70249L16.4546 3.07624C20.47 4.0154 21.6967 5.99915 20.7575 10.005Z" stroke="white" stroke-width="1.5" stroke-linecap="round" stroke-linejoin="round"/>
<path d="M14.4326 18.5821C13.8384 18.9846 13.0909 19.32 12.1805 19.6171L10.6663 20.1154C6.86175 21.3421 4.85883 20.3167 3.62258 16.5121L2.39592 12.7267C1.16925 8.9221 2.18508 6.9096 5.98967 5.68293L7.50383 5.1846C7.89675 5.06001 8.2705 4.9546 8.62508 4.88751C8.33758 5.4721 8.10758 6.18126 7.91592 6.99585L6.97675 11.0113C6.03758 15.0171 7.27383 16.9913 11.2701 17.94L12.8801 18.3233C13.4359 18.4575 13.9534 18.5438 14.4326 18.5821Z" stroke="white" stroke-width="1.5" stroke-linecap="round" stroke-linejoin="round"/>
<path d="M12.1133 8.17459L16.7612 9.35334" stroke="white" stroke-width="1.5" stroke-linecap="round" stroke-linejoin="round"/>
<path d="M11.1741 11.8833L13.9532 12.5925" stroke="white" stroke-width="1.5" stroke-linecap="round" stroke-linejoin="round"/>
</g>
</svg>
