<svg width="20" height="20" viewBox="0 0 20 20" fill="none" xmlns="http://www.w3.org/2000/svg">
<path d="M8.24021 10.9869V9.61357C8.24021 7.34065 8.92689 5.49347 12.3603 5.49347C15.7937 5.49347 16.4804 7.34065 16.4804 9.61357V10.9869" stroke="#1A1A1A" stroke-width="1.5" stroke-linecap="round" stroke-linejoin="round"/>
<path d="M12.3605 16.8238C13.3086 16.8238 14.0772 16.0552 14.0772 15.107C14.0772 14.1589 13.3086 13.3903 12.3605 13.3903C11.4124 13.3903 10.6438 14.1589 10.6438 15.107C10.6438 16.0552 11.4124 16.8238 12.3605 16.8238Z" stroke="#1A1A1A" stroke-width="1.5" stroke-linecap="round" stroke-linejoin="round"/>
<path d="M15.7939 19.2271H8.92706C6.18032 19.2271 5.49364 18.5405 5.49364 15.7937V14.4204C5.49364 11.6736 6.18032 10.9869 8.92706 10.9869H15.7939C18.5406 10.9869 19.2273 11.6736 19.2273 14.4204V15.7937C19.2273 18.5405 18.5406 19.2271 15.7939 19.2271Z" stroke="#1A1A1A" stroke-width="1.5" stroke-linecap="round" stroke-linejoin="round"/>
</svg>
