<svg width="16" height="16" viewBox="0 0 16 16" fill="none" xmlns="http://www.w3.org/2000/svg">
<path d="M11.3335 12.2867H8.66683L5.70015 14.26C5.26015 14.5533 4.66683 14.24 4.66683 13.7067V12.2867C2.66683 12.2867 1.3335 10.9534 1.3335 8.95337V4.95333C1.3335 2.95333 2.66683 1.62 4.66683 1.62H11.3335C13.3335 1.62 14.6668 2.95333 14.6668 4.95333V8.95337C14.6668 10.9534 13.3335 12.2867 11.3335 12.2867Z" stroke="#1A1A1A" stroke-width="1.3" stroke-miterlimit="10" stroke-linecap="round" stroke-linejoin="round"/>
<path d="M8.0002 7.57333V7.43335C8.0002 6.98002 8.28022 6.74001 8.56022 6.54667C8.83355 6.36001 9.10685 6.12002 9.10685 5.68002C9.10685 5.06668 8.61354 4.57333 8.0002 4.57333C7.38687 4.57333 6.89355 5.06668 6.89355 5.68002" stroke="#1A1A1A" stroke-width="1.3" stroke-linecap="round" stroke-linejoin="round"/>
<path d="M7.99684 9.16667H8.00284" stroke="#1A1A1A" stroke-width="1.3" stroke-linecap="round" stroke-linejoin="round"/>
</svg>
